<svg version="1.1" id="Layer_1" xmlns="http://www.w3.org/2000/svg" xmlns:xlink="http://www.w3.org/1999/xlink" x="0px" y="0px"
	 width="100%" viewBox="0 0 1024 1024" enable-background="new 0 0 1024 1024" xml:space="preserve">
<path fill="#000000" opacity="1.000000" stroke="none" 
	d="
M463.406647,367.347778 
	C479.861115,369.591858 495.313049,374.359955 511.063354,377.758270 
	C531.197388,382.102478 551.353333,386.121063 571.947388,387.869690 
	C588.122498,389.243103 604.150513,388.922913 620.187927,386.663239 
	C624.077209,386.115234 627.423523,384.223450 630.884827,382.627594 
	C663.215088,367.721771 692.970398,348.991882 717.944214,323.319244 
	C729.165710,311.783722 739.324280,299.362457 744.054199,283.614105 
	C748.850220,267.645691 745.270996,253.674774 732.591370,242.434814 
	C723.532166,234.404175 712.583069,230.018677 701.251770,226.396881 
	C699.670959,225.891632 698.054626,225.411972 696.583191,224.666824 
	C692.857666,222.780136 692.065186,219.449280 692.893127,215.744461 
	C693.694031,212.161011 696.271057,210.676392 699.903015,210.642105 
	C708.937012,210.556824 717.266113,213.509583 725.458923,216.738815 
	C741.768372,223.167282 755.148132,233.118668 763.018433,249.340851 
	C772.667419,269.229034 768.234680,288.089142 757.992798,306.006561 
	C744.635620,329.374054 725.709229,347.965210 704.308044,363.851898 
	C695.354431,370.498444 689.292175,378.216125 684.311035,388.228821 
	C655.880005,445.378754 609.958801,480.575623 547.183411,492.097626 
	C492.896942,502.061646 442.412842,491.301331 398.069000,457.743011 
	C388.207672,450.280182 378.173737,447.099426 366.570099,445.192566 
	C339.709137,440.778381 313.508759,433.853882 289.638245,420.150085 
	C275.507812,412.037994 263.600830,401.561096 256.603912,386.420593 
	C248.450058,368.776642 250.420853,351.382111 258.569977,334.401245 
	C269.181641,312.289032 286.132996,296.259491 307.503143,284.688293 
	C310.741699,282.934753 314.265259,281.433929 317.853943,283.970581 
	C322.604218,287.328247 322.279724,293.357056 317.145599,297.428192 
	C308.403351,304.360382 299.352936,310.943390 291.760712,319.199615 
	C283.765167,327.894409 277.351318,337.612427 274.532318,349.218475 
	C270.082947,367.536621 276.464325,382.163086 290.462555,394.045319 
	C307.262695,408.305878 327.760864,414.157562 348.431824,419.564209 
	C352.843994,420.718231 357.271484,422.345703 362.476227,421.687988 
	C359.638489,414.602875 355.025604,408.850616 351.479858,402.517761 
	C347.867218,396.065460 347.642059,396.114197 353.056183,391.508911 
	C368.475739,378.393127 386.784515,371.598846 406.327850,367.946930 
	C425.118652,364.435669 444.061371,364.845978 463.406647,367.347778 
z"/>
<path fill="#000000" opacity="1.000000" stroke="none" 
	d="
M662.942078,254.904724 
	C671.626465,250.938354 679.252625,245.876938 686.878540,240.940979 
	C689.277222,241.935944 689.403503,244.157196 690.035889,245.917023 
	C698.007263,268.100525 701.449341,290.970520 700.369263,314.532684 
	C700.258728,316.943665 699.450684,318.549713 697.445129,319.885193 
	C673.632812,335.741150 647.579529,345.455627 619.215393,349.386932 
	C586.011414,353.989014 553.592346,349.682190 521.404419,341.811005 
	C502.846619,337.272949 484.396271,332.243378 465.345062,330.034882 
	C419.153900,324.680176 375.662354,330.493500 338.013000,360.646179 
	C337.625214,360.956818 337.210144,361.246033 336.771515,361.476074 
	C336.490173,361.623657 336.142151,361.644196 335.473022,361.807159 
	C332.473907,357.021912 331.538239,351.475952 330.427185,346.036407 
	C326.284454,325.754150 326.764557,305.392670 329.487366,284.987122 
	C329.829773,282.420929 331.028961,280.685394 332.940491,279.216339 
	C352.211761,264.406311 373.792084,255.014420 397.912628,251.672577 
	C431.410980,247.031464 463.707275,253.727493 495.935150,261.808441 
	C522.234375,268.402832 548.768860,273.548706 576.102844,273.808258 
	C606.430969,274.096252 635.217041,267.988220 662.942078,254.904724 
z"/>
<path fill="#000000" opacity="1.000000" stroke="none" 
	d="
M442.103088,138.961014 
	C471.491547,126.015045 502.155579,122.217445 533.312378,124.960274 
	C590.897705,130.029694 636.301514,157.149384 670.000916,204.029190 
	C671.988220,206.793823 672.906189,208.861755 669.149231,211.225082 
	C648.693787,224.092667 626.508301,231.840790 602.624573,235.465485 
	C576.092529,239.492111 550.260864,235.574402 524.505981,229.965164 
	C506.651642,226.076660 488.979340,221.257080 471.023651,217.951248 
	C442.393402,212.680130 413.598602,210.790680 384.982819,218.465393 
	C369.378845,222.650360 355.033661,229.497681 342.229340,239.441299 
	C341.314117,240.152039 340.349396,240.804871 339.364929,241.415680 
	C339.173737,241.534286 338.783508,241.332123 337.698059,241.135010 
	C361.308258,195.480865 393.898712,159.581879 442.103088,138.961014 
z"/>
<path fill="#000000" opacity="1.000000" stroke="none" 
	d="
M426.646423,724.011169 
	C426.652618,710.721802 426.652618,710.721863 439.692871,710.751587 
	C451.348236,710.778137 451.329437,710.778137 451.357880,722.341248 
	C451.369720,727.154114 451.142761,731.955383 452.297455,736.736023 
	C453.833038,743.093567 458.262207,747.275208 464.838623,747.605774 
	C469.486816,747.839355 474.168915,747.882385 478.812653,747.611755 
	C486.647583,747.155212 491.339905,742.292603 491.594513,734.395935 
	C491.798401,728.071045 491.774506,721.731323 491.606598,715.404785 
	C491.514221,711.925232 492.890564,710.632263 496.308197,710.725647 
	C501.468536,710.866760 506.641907,710.849365 511.799866,710.647156 
	C515.337952,710.508301 516.329590,712.047913 516.411621,715.396240 
	C516.582214,722.358276 515.777161,729.319153 517.163391,736.301270 
	C518.318298,742.118225 521.571716,745.753174 526.954529,747.045105 
	C533.590942,748.637878 540.454468,749.020935 547.147705,747.125610 
	C553.153931,745.424866 556.475159,740.493225 556.616760,733.380432 
	C556.736145,727.384705 556.768921,721.380920 556.588989,715.388184 
	C556.487122,711.997375 557.665100,710.502808 561.164734,710.612061 
	C566.491577,710.778381 571.831116,710.823486 577.156494,710.650024 
	C580.905151,710.527893 582.173218,712.240234 582.143311,715.742737 
	C582.091980,721.739502 582.193726,727.738647 582.307983,733.735352 
	C582.463013,741.868347 587.467529,747.269531 595.557983,747.557312 
	C602.879333,747.817688 610.225098,747.811279 617.546387,747.545044 
	C625.631348,747.251038 630.304749,741.892578 630.601318,732.840393 
	C630.786743,727.181458 630.840332,721.502869 630.581909,715.850037 
	C630.397705,711.819824 632.065796,710.555725 635.862488,710.707397 
	C640.852661,710.906616 645.857361,710.711853 650.854980,710.766785 
	C652.903198,710.789307 655.215271,710.990784 655.218384,713.725464 
	C655.231323,725.206848 656.601746,736.816772 654.714355,748.140808 
	C651.832458,765.432068 642.101868,773.964355 623.984375,775.123108 
	C613.074280,775.820923 602.033386,776.257629 591.086487,774.500549 
	C585.741333,773.642517 580.689026,772.107727 576.249268,769.009216 
	C573.926636,767.388306 572.064880,767.183960 569.460938,768.686157 
	C552.006165,778.756042 527.087219,778.389465 509.993103,767.860657 
	C507.617523,766.397461 505.882141,766.504150 503.690582,768.090942 
	C496.264374,773.467834 487.768127,775.445557 478.736053,775.386597 
	C470.938202,775.335754 463.098633,776.010254 455.445892,773.616516 
	C451.468628,772.372498 450.208313,775.194092 449.307495,778.325562 
	C446.526367,787.993164 441.659332,796.371765 433.935364,802.964844 
	C422.582825,812.655212 408.932220,815.583008 394.550842,816.369141 
	C391.829254,816.517883 390.618042,815.262939 390.650360,812.512146 
	C390.722778,806.348328 390.705994,800.183044 390.663147,794.018738 
	C390.647247,791.728516 391.665283,790.793335 393.945984,790.632690 
	C396.589386,790.446716 399.233032,790.022827 401.832062,789.486511 
	C417.416473,786.270386 426.590240,774.988464 426.639618,758.997864 
	C426.675110,747.501709 426.646820,736.005432 426.646423,724.011169 
z"/>
<path fill="#000000" opacity="1.000000" stroke="none" 
	d="
M343.803558,775.389954 
	C332.536102,774.935120 321.716278,776.267883 310.932739,774.512512 
	C304.537445,773.471558 298.711975,771.309082 293.539185,767.489929 
	C291.490967,765.977844 289.916931,766.066956 287.722412,767.358398 
	C273.359985,775.810120 257.665863,777.356750 241.449661,775.852295 
	C236.660522,775.407959 231.888367,774.778931 227.098297,774.346741 
	C224.915680,774.149841 223.734207,773.244019 223.678055,770.957153 
	C223.478210,762.821289 223.594254,754.711548 225.327988,746.016846 
	C235.222015,748.383118 245.213120,747.077454 255.086746,748.130615 
	C260.454926,748.703247 265.720612,748.036011 270.832367,746.629517 
	C275.708588,745.287903 276.165009,743.823914 273.373260,739.479492 
	C266.338226,728.531677 258.215698,718.373291 249.918030,708.385132 
	C247.083466,704.973145 247.217636,702.913147 250.611145,700.305725 
	C253.904297,697.775513 257.013123,694.965515 259.955902,692.030640 
	C262.717926,689.276184 264.831696,689.459717 267.400177,692.340088 
	C278.628326,704.931824 289.328400,717.987244 296.948822,733.075439 
	C302.306244,743.682983 310.207489,748.308167 321.770020,747.643005 
	C330.886627,747.118652 340.068176,748.539673 349.149841,746.694458 
	C356.816193,745.136841 358.409515,741.762024 354.148163,735.187683 
	C347.949066,725.623840 339.031952,718.867310 329.830231,712.496765 
	C325.453064,709.466370 320.876099,706.720398 316.341614,703.923401 
	C314.448883,702.755920 313.585236,701.416565 313.910858,699.017029 
	C314.958252,691.298340 315.871124,683.556641 316.593781,675.801331 
	C316.824921,673.321106 317.751190,671.802795 319.980530,670.827087 
	C338.433746,662.751709 356.850403,654.592346 375.330048,646.578125 
	C379.859619,644.613770 381.018433,645.451477 381.094269,650.372620 
	C381.186646,656.367615 380.987366,662.367371 381.096069,668.361816 
	C381.152679,671.483154 379.813446,673.170166 376.967560,674.361511 
	C367.908417,678.153809 358.922333,682.123291 349.945770,686.109314 
	C344.289062,688.621155 344.172913,690.060913 349.293457,693.594177 
	C360.447571,701.290649 370.075775,710.331482 374.990692,723.355225 
	C378.532257,732.739807 379.504761,742.427124 377.056763,752.245789 
	C374.274414,763.405823 367.346344,770.627319 356.035828,773.281677 
	C352.165985,774.189819 348.201874,774.696167 343.803558,775.389954 
z"/>
<path fill="#000000" opacity="1.000000" stroke="none" 
	d="
M698.672485,705.432800 
	C724.739075,694.145081 748.653076,708.016663 752.432129,735.944702 
	C754.698914,752.696350 753.226624,768.790833 745.341492,783.900208 
	C735.321960,803.099365 718.400269,812.138489 697.745300,815.321472 
	C692.824707,816.079712 687.865723,816.587830 682.855469,816.532288 
	C679.970154,816.500244 678.596252,815.483093 678.660461,812.426025 
	C678.786194,806.435791 678.790344,800.439209 678.659973,794.449158 
	C678.599609,791.677368 679.829163,790.632019 682.423767,790.339355 
	C688.685486,789.633118 694.960144,789.065979 701.140076,787.670471 
	C709.643616,785.750305 718.984619,780.831238 722.789429,775.229370 
	C699.607971,777.459656 682.139160,770.811890 678.889099,745.724854 
	C676.684143,728.704651 682.983521,714.682129 698.672485,705.432800 
M729.390015,748.978821 
	C729.281189,742.971069 728.607544,737.061768 725.577087,731.728577 
	C722.414856,726.163513 717.203430,724.152588 711.150635,725.953857 
	C705.101685,727.753906 700.110291,733.985474 700.379822,739.438538 
	C700.527771,742.431702 701.654053,745.105713 704.211304,746.643677 
	C711.978943,751.315002 720.314148,752.128174 729.390015,748.978821 
z"/>
<path fill="#000000" opacity="1.000000" stroke="none" 
	d="
M782.647339,754.787476 
	C782.700928,741.981995 782.688171,729.657043 781.828857,717.343201 
	C781.381348,710.930176 781.739868,710.688110 788.342834,710.676880 
	C793.175537,710.668640 798.008667,710.735535 802.840820,710.689636 
	C805.502136,710.664368 807.006592,711.868225 806.981323,714.523560 
	C806.782410,735.434143 809.461243,756.450989 804.424927,777.180908 
	C799.026184,799.402649 784.327271,811.378235 762.455872,815.230835 
	C748.747192,817.645569 748.660156,817.404785 748.690002,803.426331 
	C748.698120,799.616272 747.334290,795.214722 749.361816,792.149292 
	C751.361389,789.126343 756.064819,790.157532 759.520874,789.174255 
	C774.417786,784.935669 782.290588,773.487183 782.647339,754.787476 
z"/>
<path fill="#000000" opacity="1.000000" stroke="none" 
	d="
M691.216553,462.705292 
	C701.854065,463.140045 708.596680,473.846497 704.438416,482.968353 
	C703.819641,484.325867 703.150330,485.715393 702.866821,487.161163 
	C701.706604,493.077179 698.106323,496.349121 692.339600,497.741669 
	C686.938843,499.045807 682.171448,501.741241 677.753845,505.105103 
	C673.979126,507.979401 669.931580,509.120819 665.150452,507.427094 
	C662.376892,506.444458 659.320068,506.253540 656.385620,505.735016 
	C650.986938,504.781097 645.660950,503.388916 643.878296,497.401276 
	C641.760986,490.289764 643.690369,483.814362 648.883179,478.651917 
	C653.320007,474.240936 658.748535,471.015778 662.545166,465.704529 
	C665.591309,461.443024 670.875488,462.238007 674.872681,464.449493 
	C678.979065,466.721344 682.286743,467.118896 686.103638,464.279205 
	C687.357605,463.346313 689.213440,463.222473 691.216553,462.705292 
z"/>
<path fill="#000000" opacity="1.000000" stroke="none" 
	d="
M347.180847,173.906784 
	C345.702911,178.608810 342.763123,181.256821 338.380249,182.342270 
	C332.480652,183.803375 327.222198,186.521545 322.420319,190.236771 
	C318.792023,193.043991 314.849335,193.974915 310.270111,192.389862 
	C307.327789,191.371414 304.155029,190.899506 301.044495,190.512863 
	C295.783173,189.858887 290.844055,188.208679 289.312775,182.777649 
	C287.556732,176.549500 287.884766,170.007599 292.669891,164.970856 
	C297.543030,159.841553 303.629425,156.073380 308.106659,150.302170 
	C310.985565,146.591248 316.307983,147.721008 320.181885,149.689651 
	C323.826630,151.541824 326.611755,151.646866 330.317200,149.760269 
	C339.547272,145.060883 349.570312,150.588593 351.270721,160.870300 
	C351.901367,164.683563 349.081604,167.375366 348.162079,170.682373 
	C347.895691,171.640381 347.572937,172.582718 347.180847,173.906784 
z"/>
<path fill="#000000" opacity="1.000000" stroke="none" 
	d="
M630.467896,805.359131 
	C626.534424,806.946716 627.520996,810.292847 627.499695,812.859436 
	C627.437805,820.324890 623.650452,825.280396 617.219604,827.999634 
	C611.096497,830.588806 605.047485,829.311829 599.858154,825.150085 
	C595.561279,821.704163 593.734192,816.936157 593.660583,811.508118 
	C593.621643,808.639160 592.912354,806.754883 589.834290,805.421387 
	C584.260132,803.006470 581.357300,797.718994 581.918518,792.704285 
	C582.457153,787.892212 586.248413,783.749634 591.464905,782.273254 
	C597.060242,780.689575 603.072327,782.442200 606.372742,786.682617 
	C607.370911,787.965149 608.230469,789.355652 609.064453,790.567383 
	C611.949402,790.457825 612.307068,788.044128 613.540466,786.633179 
	C617.603333,781.985718 622.752441,780.721008 628.478516,782.106201 
	C633.592773,783.343323 636.931152,786.724731 637.778687,792.068115 
	C638.741699,798.139099 635.873962,802.298584 630.467896,805.359131 
z"/>
<path fill="#000000" opacity="1.000000" stroke="none" 
	d="
M813.712402,681.235596 
	C817.999878,685.051880 819.404480,689.525574 817.668396,694.548096 
	C815.788940,699.985535 811.401978,702.721802 805.863831,703.183960 
	C798.025208,703.838013 793.653076,699.137756 790.988647,692.385071 
	C788.943420,693.218689 788.783142,695.037109 787.976685,696.401184 
	C784.664978,702.002441 777.728455,704.696167 771.568054,702.797180 
	C765.370483,700.886780 762.252869,696.209717 762.659119,689.508240 
	C762.927063,685.087708 765.174866,681.679993 769.045227,680.095398 
	C772.549011,678.660889 772.985046,676.591125 772.942017,673.274963 
	C772.817444,663.672363 779.293091,656.305847 787.864075,655.787476 
	C798.014099,655.173523 805.866394,660.900146 806.557739,670.979858 
	C806.928650,676.387146 808.457092,679.469727 813.712402,681.235596 
z"/>
<path fill="#000000" opacity="1.000000" stroke="none" 
	d="
M653.133423,885.532776 
	C652.781250,873.613831 654.318665,862.676147 664.410461,855.278381 
	C673.459595,848.645020 683.744629,848.695923 693.297058,853.143250 
	C703.094299,857.704468 707.357910,866.934570 708.220764,877.486145 
	C708.722107,883.616577 708.455627,889.737122 706.351807,895.704590 
	C701.704163,908.887451 690.506958,915.896240 676.360779,914.225647 
	C664.396729,912.812744 655.168030,902.927063 653.678101,889.925171 
	C653.526917,888.605896 653.389648,887.284973 653.133423,885.532776 
M689.356750,899.913147 
	C697.565979,891.649292 699.067505,878.331726 693.043152,868.765381 
	C690.024902,863.972534 685.688660,861.275879 680.240051,861.554810 
	C674.182007,861.864868 669.564087,865.247131 667.227112,870.968384 
	C664.061707,878.717590 664.205444,886.574463 667.771301,894.168274 
	C671.911499,902.985107 680.343140,905.381348 689.356750,899.913147 
z"/>
<path fill="#000000" opacity="1.000000" stroke="none" 
	d="
M765.307373,863.879639 
	C770.816467,876.199585 771.691040,888.319214 765.319397,900.122131 
	C759.945618,910.076355 750.253479,912.579651 739.909363,912.986816 
	C734.622192,913.194824 729.302673,912.642334 724.000427,912.379578 
	C721.427734,912.252136 720.710815,910.539978 720.710693,908.275146 
	C720.709717,890.812439 720.704041,873.349731 720.689392,855.887024 
	C720.687500,853.644531 721.291870,851.746948 723.923401,851.812256 
	C732.862854,852.034302 741.884460,850.571472 750.725037,852.870789 
	C756.927002,854.483887 761.963989,857.780640 765.307373,863.879639 
M745.773865,900.480896 
	C756.879517,896.873840 758.670898,886.386536 757.359070,876.786072 
	C756.136963,867.842102 748.850952,862.737305 738.601746,862.313049 
	C734.051941,862.124634 732.239258,863.939697 732.302612,868.397583 
	C732.423096,876.876648 732.312927,885.358887 732.331726,893.839661 
	C732.346497,900.511963 733.937988,902.013489 740.644104,901.576721 
	C742.114075,901.481018 743.559021,901.000061 745.773865,900.480896 
z"/>
<path fill="#000000" opacity="1.000000" stroke="none" 
	d="
M521.651978,860.074463 
	C521.711792,851.720032 521.717712,851.517395 529.742676,851.752869 
	C536.367249,851.947205 543.024231,850.822510 549.630615,852.531128 
	C556.502380,854.308289 560.947937,858.554077 561.974365,865.401489 
	C563.072083,872.724915 563.382751,880.497131 556.281921,885.374023 
	C551.952209,888.347595 552.045532,890.683228 554.912109,894.547424 
	C558.846069,899.850281 562.232361,905.559448 565.892212,911.153809 
	C558.074646,914.635681 553.281433,913.218506 549.285889,906.972595 
	C546.420776,902.493896 544.335510,897.520996 540.716492,893.514648 
	C539.308838,891.956238 537.847107,890.580994 535.581787,891.269104 
	C533.054260,892.036865 533.328430,894.272400 533.301819,896.248474 
	C533.250305,900.079956 533.136169,903.917053 533.279541,907.743103 
	C533.444763,912.151245 530.698608,912.357605 527.393921,912.407776 
	C523.902710,912.460632 521.619446,911.780579 521.645874,907.546204 
	C521.743774,891.885620 521.664673,876.223877 521.651978,860.074463 
M539.436584,862.343506 
	C537.127563,862.364868 534.218689,861.988831 533.649658,864.860840 
	C532.822571,869.035095 531.975525,873.786072 534.132874,877.438599 
	C535.768860,880.208496 539.949341,878.565918 542.994019,878.680847 
	C547.282776,878.842590 549.971436,876.490479 550.506409,872.352661 
	C551.015259,868.416870 549.389587,865.175476 545.539124,863.589355 
	C543.891052,862.910522 542.026062,862.758301 539.436584,862.343506 
z"/>
<path fill="#000000" opacity="1.000000" stroke="none" 
	d="
M781.881714,182.578766 
	C779.345337,179.950409 777.455261,179.542511 774.487915,181.959198 
	C770.232239,185.425140 765.890259,184.010590 763.667908,178.945267 
	C762.295105,175.816315 760.302612,173.235947 757.967957,170.833755 
	C751.492554,164.170944 749.944153,156.182022 751.659607,147.313538 
	C752.392822,143.523148 754.654053,141.056107 758.244324,139.853394 
	C761.706787,138.693512 765.224243,137.698532 768.714417,136.620697 
	C771.784424,135.672592 773.916504,137.429413 775.732788,139.371429 
	C779.192932,143.070953 782.946899,146.255447 787.760315,148.050369 
	C788.522888,148.334747 789.233582,148.843811 789.869690,149.368484 
	C794.394531,153.101166 797.561462,169.764343 794.790527,174.981216 
	C794.168945,176.151657 793.645935,177.376785 793.117920,178.594223 
	C790.595276,184.411026 788.063782,185.387299 781.881714,182.578766 
z"/>
<path fill="#000000" opacity="1.000000" stroke="none" 
	d="
M248.361877,483.446533 
	C247.676910,483.310516 247.181015,483.313721 247.066528,483.106354 
	C241.960220,473.857910 232.215683,467.470886 231.163361,455.633881 
	C230.279907,445.696198 233.044250,440.966034 242.751022,438.673035 
	C244.839279,438.179749 246.808731,437.193695 248.891174,436.663391 
	C251.867935,435.905273 254.110123,437.496277 255.906967,439.550232 
	C259.150879,443.258301 262.868530,446.208160 267.509766,447.967743 
	C268.424225,448.314392 269.292572,448.906403 270.039581,449.550629 
	C274.459656,453.362701 277.475983,469.569550 274.812378,474.809967 
	C274.136108,476.140564 273.566010,477.525940 272.967499,478.895020 
	C270.444153,484.667175 266.495544,485.984985 261.536255,482.136536 
	C258.839478,480.043823 256.937622,479.390869 254.404114,482.107147 
	C252.952866,483.663086 250.735535,483.468140 248.361877,483.446533 
z"/>
<path fill="#000000" opacity="1.000000" stroke="none" 
	d="
M265.053253,898.838135 
	C268.672241,902.912781 272.646637,904.665344 277.725891,902.785522 
	C282.831573,900.895874 285.209930,897.156372 285.739044,891.843079 
	C286.861877,880.567566 286.028961,869.282104 286.022217,858.005005 
	C286.019653,853.722351 287.001587,851.582703 291.832855,851.596985 
	C296.401367,851.610596 297.473511,853.562805 297.416504,857.653198 
	C297.249481,869.633911 297.445709,881.619385 297.316315,893.601013 
	C297.193848,904.940796 291.638702,911.828430 280.503906,913.672119 
	C270.709534,915.293762 261.065369,915.174011 254.401657,905.861450 
	C250.663788,900.637817 251.153183,894.371948 250.884583,888.519043 
	C250.419983,878.394897 250.762314,868.229797 250.896149,858.083618 
	C250.973068,852.251770 254.896606,849.798767 260.266998,851.969788 
	C262.761566,852.978333 262.333252,855.131653 262.339722,857.057739 
	C262.374390,867.376282 262.379211,877.695190 262.331970,888.013672 
	C262.314911,891.743408 262.842743,895.302063 265.053253,898.838135 
z"/>
<path fill="#000000" opacity="1.000000" stroke="none" 
	d="
M553.103577,812.346680 
	C545.353333,811.742065 541.322144,806.830688 537.738525,799.600159 
	C534.254333,807.644531 529.210571,812.310059 521.237671,812.260132 
	C517.126770,812.234375 513.461670,810.567566 510.603210,807.476501 
	C504.727295,801.122681 505.255615,790.531494 511.694458,785.074646 
	C519.404968,778.540161 528.677673,781.030457 537.432617,791.989685 
	C538.852783,792.009033 539.312012,790.899658 539.959778,789.928528 
	C545.217163,782.046753 551.739197,779.604553 559.517395,782.563110 
	C565.809326,784.956238 569.992310,791.530396 569.239624,797.842773 
	C568.225647,806.346558 562.802490,811.357605 553.103577,812.346680 
z"/>
<path fill="#000000" opacity="1.000000" stroke="none" 
	d="
M806.056030,901.672974 
	C808.874146,901.678223 811.206299,901.686768 813.538391,901.680237 
	C816.466919,901.672058 819.328674,901.510071 819.353149,905.832581 
	C819.373657,909.463257 819.256042,912.483704 814.444824,912.744629 
	C805.294983,913.240906 796.167297,913.445190 787.026733,912.559998 
	C783.634216,912.231445 782.613770,910.489685 782.630676,907.260376 
	C782.717712,890.604919 782.737000,873.947998 782.587891,857.293335 
	C782.552002,853.289062 783.799316,851.555481 788.022400,851.661926 
	C796.679199,851.880188 805.346313,851.805176 814.007202,851.694641 
	C817.832214,851.645813 819.304749,853.208862 819.336060,857.069153 
	C819.367371,860.934387 818.001160,862.539368 814.096802,862.393860 
	C809.441101,862.220459 804.771545,862.457642 800.110107,862.384583 
	C796.278748,862.324585 794.015381,863.728699 794.220825,867.903564 
	C794.398499,871.513916 792.861816,875.904785 799.224854,876.000183 
	C803.193726,876.059631 807.154419,876.871216 811.169617,876.523499 
	C814.592285,876.227112 815.477112,878.256470 815.346008,881.205322 
	C815.222412,883.985413 815.901611,887.223145 811.459656,887.219360 
	C807.295288,887.215820 803.130920,887.267029 798.966553,887.283569 
	C793.531555,887.305176 794.255005,891.265930 794.159607,894.739624 
	C794.061951,898.299500 794.204651,901.649475 799.073486,901.664246 
	C801.239014,901.670837 803.404541,901.668091 806.056030,901.672974 
z"/>
<path fill="#000000" opacity="1.000000" stroke="none" 
	d="
M502.316772,886.372925 
	C497.218811,887.905273 492.371704,887.207153 487.572754,887.237488 
	C483.262970,887.264709 482.144745,889.486938 482.295990,893.266174 
	C482.448456,897.078125 481.608124,901.444763 487.453033,901.587952 
	C492.611359,901.714417 497.777679,901.763245 502.934357,901.622803 
	C506.601318,901.522888 507.457275,903.425537 507.375977,906.607727 
	C507.297760,909.669495 507.150696,912.340210 503.009460,912.310364 
	C493.686462,912.243042 484.362457,912.266663 475.039215,912.314453 
	C471.821350,912.330933 470.655396,910.741699 470.663727,907.665405 
	C470.710052,890.516846 470.707825,873.368042 470.648163,856.219543 
	C470.637238,853.070984 471.934418,851.681641 475.108337,851.705383 
	C484.431335,851.775024 493.755707,851.791931 503.078400,851.704895 
	C506.855103,851.669678 507.347443,853.863892 507.340118,856.902222 
	C507.332458,860.079712 506.951141,862.480713 502.843353,862.387512 
	C497.689148,862.270447 492.526520,862.483215 487.368378,862.594177 
	C482.697052,862.694641 482.288391,865.853088 482.283783,869.512573 
	C482.279449,872.958130 482.445496,875.904358 487.067200,875.939575 
	C490.549957,875.966187 494.100647,876.910400 497.494202,876.469421 
	C502.375031,875.835205 503.905365,877.704956 503.319885,882.172424 
	C503.149231,883.474548 502.880402,884.763794 502.316772,886.372925 
z"/>
<path fill="#000000" opacity="1.000000" stroke="none" 
	d="
M330.904663,851.685181 
	C334.925385,851.480530 338.361908,852.013489 341.728058,853.075989 
	C345.007843,854.111267 347.748047,855.933838 349.707458,858.779480 
	C358.362335,871.348572 350.047668,889.831604 334.961487,891.600342 
	C324.326874,892.847229 324.326904,892.847229 324.312408,903.547607 
	C324.311066,904.547302 324.213470,905.557678 324.324310,906.544800 
	C324.806488,910.839172 323.045441,912.492676 318.639435,912.419434 
	C314.546997,912.351318 312.557220,911.343262 312.604919,906.775696 
	C312.778992,890.116455 312.727783,873.453430 312.582947,856.793396 
	C312.548584,852.838745 314.103424,851.457031 317.926880,851.654236 
	C322.080780,851.868469 326.254852,851.691406 330.904663,851.685181 
M334.239868,863.073181 
	C330.814392,862.567749 326.696472,860.384460 324.931091,865.298828 
	C323.589752,869.032776 324.209045,873.146179 324.580963,877.092407 
	C324.694153,878.293457 325.494720,879.126709 326.689545,879.613647 
	C331.017670,881.377197 337.729340,879.063538 339.695587,875.079285 
	C341.946625,870.517944 340.258972,866.309692 334.239868,863.073181 
z"/>
<path fill="#000000" opacity="1.000000" stroke="none" 
	d="
M642.672852,901.729248 
	C644.079529,911.273560 643.483521,912.165466 635.267944,913.551208 
	C613.664062,917.195068 601.224121,907.510803 599.761230,885.633484 
	C599.199585,877.235596 600.359375,869.055054 604.793701,861.623535 
	C609.072998,854.451904 615.417175,850.741455 623.710205,850.704773 
	C628.339050,850.684265 633.030334,850.027710 637.609070,851.291870 
	C641.714111,852.425354 644.209595,859.721375 641.650818,863.013794 
	C640.390564,864.635620 638.912659,863.841675 637.602783,863.243958 
	C634.351196,861.759888 630.996216,861.089478 627.424500,861.351074 
	C620.709106,861.842957 615.528137,865.957825 613.532715,872.380310 
	C611.866028,877.744751 611.750854,883.267700 612.540649,888.695740 
	C614.133362,899.642639 624.364441,905.226685 636.618042,902.192139 
	C638.513733,901.722717 640.325317,900.569336 642.672852,901.729248 
z"/>
<path fill="#000000" opacity="1.000000" stroke="none" 
	d="
M576.700195,536.024048 
	C570.362854,533.973206 565.811951,529.650330 560.776062,526.331055 
	C555.150269,522.622864 557.277649,513.799744 563.923584,511.790710 
	C567.844238,510.605499 571.293701,509.003174 574.250732,506.185608 
	C576.256287,504.274719 578.721375,503.577972 581.547791,503.577789 
	C586.847717,503.577515 592.129883,503.654602 597.453247,503.014069 
	C601.748779,502.497162 606.217285,503.435303 608.427307,508.109955 
	C610.641785,512.794006 608.734070,516.655212 605.280090,519.671509 
	C600.163147,524.140137 594.830139,528.302551 590.264404,533.430237 
	C586.815674,537.303345 581.776367,536.533447 576.700195,536.024048 
z"/>
<path fill="#000000" opacity="1.000000" stroke="none" 
	d="
M202.810669,205.007660 
	C203.558075,199.986084 206.031738,197.176041 210.820251,196.323929 
	C212.540207,196.017883 214.475327,195.193863 215.671707,193.976654 
	C220.425385,189.140228 226.156448,188.133179 232.591537,188.588974 
	C236.885849,188.893143 241.239929,188.319077 245.540192,188.581512 
	C253.434189,189.063324 256.692627,195.901260 252.130280,202.373627 
	C250.821213,204.230682 248.896332,205.692413 247.117004,207.170776 
	C243.927170,209.821014 240.572372,212.207535 237.930847,215.536407 
	C232.120514,222.858627 222.015366,223.545746 215.051620,217.273880 
	C213.422165,215.806320 211.757660,214.397919 209.695663,213.701523 
	C205.643661,212.333038 203.352509,209.625061 202.810669,205.007660 
z"/>
<path fill="#000000" opacity="1.000000" stroke="none" 
	d="
M395.034424,874.014404 
	C386.868011,883.537170 386.785889,894.586426 387.289520,905.866821 
	C387.555695,911.829285 384.679077,913.748718 378.844757,912.172546 
	C377.138672,911.711731 376.302612,910.662537 376.133331,909.038330 
	C376.013214,907.886108 375.980316,906.699036 376.109985,905.550232 
	C377.657440,891.843445 373.724335,879.702698 365.939178,868.520081 
	C363.383270,864.848755 361.354279,860.794861 359.256195,856.825073 
	C357.227356,852.986389 357.967560,852.098450 362.399933,851.669861 
	C367.296600,851.196411 370.395996,852.773438 372.669098,857.463196 
	C375.167450,862.617737 377.411560,868.061584 381.127319,872.385498 
	C384.022430,872.292480 384.661621,870.182068 385.618286,868.531067 
	C388.285278,863.928345 390.785889,859.228088 393.501740,854.655212 
	C395.071411,852.012207 403.368988,850.390137 405.693909,852.152527 
	C407.387970,853.436707 406.389099,854.806580 405.630188,856.092651 
	C402.164978,861.964722 398.681885,867.826172 395.034424,874.014404 
z"/>
<path fill="#000000" opacity="1.000000" stroke="none" 
	d="
M430.560913,864.580933 
	C427.273438,861.214478 423.395782,862.489563 419.854706,862.426331 
	C416.113403,862.359558 413.546844,862.045654 413.541962,857.124268 
	C413.537292,852.426636 415.584106,851.578064 419.611176,851.636108 
	C431.441559,851.806335 443.276886,851.802856 455.107849,851.663452 
	C458.975830,851.617920 460.478638,853.012817 460.374634,856.933777 
	C460.277161,860.607849 459.184235,862.327209 455.166748,862.409363 
	C443.371826,862.650391 443.365051,862.788757 443.354614,874.601562 
	C443.345795,884.600769 443.383575,894.599976 443.361267,904.599121 
	C443.344269,912.214172 443.249573,912.304810 437.667084,912.302856 
	C431.893951,912.300842 431.682678,912.042725 431.668030,904.288818 
	C431.647583,893.456360 431.678650,882.623840 431.636627,871.791504 
	C431.627655,869.480347 431.922760,867.104004 430.560913,864.580933 
z"/>
<path fill="#000000" opacity="1.000000" stroke="none" 
	d="
M736.101562,411.810913 
	C738.879395,412.580170 741.321838,413.088013 743.692871,413.825470 
	C748.985474,415.471558 750.949707,420.323486 747.809448,424.818573 
	C744.766602,429.174377 741.431335,433.381927 737.799133,437.255859 
	C733.262451,442.094330 717.897522,443.476440 712.310547,439.888458 
	C708.005066,437.123383 706.859680,432.724518 707.246338,428.126343 
	C707.693237,422.812073 710.413208,418.570190 715.742432,416.850067 
	C718.821472,415.856262 721.481384,414.606293 723.818237,412.256012 
	C727.454590,408.598755 731.628784,409.322937 736.101562,411.810913 
z"/>
<path fill="#000000" opacity="1.000000" stroke="none" 
	d="
M715.128784,112.859428 
	C717.256287,116.698158 719.955261,119.646004 722.615845,122.615128 
	C725.295715,125.605789 726.597900,129.111313 726.579407,133.081055 
	C726.553894,138.551987 723.760864,141.331802 718.345032,141.368362 
	C715.852539,141.385178 713.332458,141.072510 710.872498,141.342545 
	C706.129028,141.863190 702.417969,140.448502 699.690491,136.461105 
	C698.747986,135.083145 697.422302,134.102676 695.897766,133.316666 
	C687.786865,129.134979 687.158203,120.187325 694.500000,114.553116 
	C695.673096,113.652878 696.794556,112.630783 697.740967,111.498734 
	C703.579224,104.515121 709.984375,104.883690 715.128784,112.859428 
z"/>
<path fill="#000000" opacity="1.000000" stroke="none" 
	d="
M203.604660,440.036377 
	C194.619278,441.269165 185.521927,444.549286 178.801834,435.453491 
	C178.062469,434.452728 176.736008,433.816559 175.579681,433.204224 
	C168.084686,429.235443 167.288162,420.017853 174.123535,414.915070 
	C176.022430,413.497528 177.509171,411.768585 179.073044,410.047821 
	C183.572342,405.097260 190.326492,405.410980 193.822754,411.031982 
	C196.563309,415.437988 199.770554,419.401367 203.091476,423.343201 
	C207.413147,428.472839 207.598557,434.416443 203.604660,440.036377 
z"/>
<path fill="#000000" opacity="1.000000" stroke="none" 
	d="
M235.364807,867.004639 
	C235.358749,876.997253 235.439743,886.491516 235.326355,895.983521 
	C235.153244,910.475708 221.892105,918.921143 208.694504,913.054199 
	C207.484924,912.516479 206.813690,911.661255 206.784836,910.399536 
	C206.724808,907.773621 206.190918,905.096863 207.307007,902.662354 
	C208.938660,901.496948 210.308792,902.490112 211.691818,902.879883 
	C216.721222,904.297363 220.625443,902.484985 222.479538,897.680359 
	C223.319336,895.504089 223.687347,893.221313 223.693512,890.841858 
	C223.721985,879.851746 224.027664,868.859192 223.854858,857.873413 
	C223.785187,853.444458 224.985382,851.644592 229.717178,851.575989 
	C234.734283,851.503235 235.658249,853.859070 235.386826,858.013672 
	C235.202652,860.832642 235.360123,863.674011 235.364807,867.004639 
z"/>
<path fill="#000000" opacity="1.000000" stroke="none" 
	d="
M463.153992,686.571655 
	C456.949951,676.901428 461.798309,662.258118 476.494629,663.567322 
	C484.057007,664.240967 489.577148,669.556213 489.968933,677.588562 
	C490.325775,684.904297 484.451508,691.623840 477.104645,692.348572 
	C471.577454,692.893738 466.905487,691.346680 463.153992,686.571655 
z"/>
<path fill="#000000" opacity="1.000000" stroke="none" 
	d="
M523.222778,680.505432 
	C520.244202,688.983032 515.353271,692.608521 507.744629,692.356384 
	C501.128723,692.137146 496.535278,688.316223 494.471832,681.658936 
	C492.605194,675.636719 494.749115,670.752625 498.964325,666.858582 
	C503.571838,662.602112 509.340088,662.586243 514.863098,664.726807 
	C520.291504,666.830688 523.087646,671.213379 523.329468,677.097351 
	C523.370239,678.091309 523.298767,679.089844 523.222778,680.505432 
z"/>
</svg>